<?xml version="1.0" standalone="no"?>
<!DOCTYPE svg PUBLIC "-//W3C//DTD SVG 20010904//EN"
 "http://www.w3.org/TR/2001/REC-SVG-20010904/DTD/svg10.dtd">
<svg version="1.0" xmlns="http://www.w3.org/2000/svg"
 width="300.000000pt" height="300.000000pt" viewBox="0 0 300.000000 300.000000"
 preserveAspectRatio="xMidYMid meet">
<metadata>
Created by potrace 1.10, written by Peter Selinger 2001-2011
</metadata>
<g transform="translate(0.000000,300.000000) scale(0.100000,-0.100000)"
fill="#7d0204" stroke="none">
<path d="M1413 2891 c-17 -11 -46 -40 -65 -65 -67 -91 -146 -108 -230 -49 -36
24 -51 28 -110 28 -67 0 -71 -1 -104 -37 -21 -23 -36 -52 -40 -76 -8 -50 -41
-109 -76 -135 -22 -16 -40 -20 -80 -18 -149 9 -190 -3 -227 -70 -21 -36 -22
-48 -16 -123 6 -67 4 -90 -9 -118 -18 -37 -78 -78 -115 -78 -32 0 -96 -35
-120 -66 -42 -53 -36 -126 14 -200 55 -81 39 -152 -51 -222 -62 -49 -88 -99
-81 -158 5 -49 26 -80 88 -126 82 -62 97 -134 43 -213 -14 -20 -30 -59 -36
-85 -10 -42 -8 -53 11 -92 22 -46 79 -88 120 -88 32 0 96 -35 121 -67 20 -26
22 -35 16 -116 -6 -74 -4 -94 13 -131 29 -67 62 -80 194 -81 l108 0 34 -37
c24 -25 36 -50 41 -83 8 -59 57 -126 104 -142 47 -17 90 -8 167 33 36 19 76
34 90 34 38 0 94 -37 128 -83 42 -58 89 -87 139 -87 52 0 92 24 136 83 40 52
94 87 135 87 16 0 56 -15 89 -34 136 -76 222 -44 265 101 17 55 30 78 58 103
l37 33 89 -7 c78 -6 94 -4 132 14 67 33 87 81 79 196 l-7 90 33 37 c20 23 47
41 73 48 171 46 211 127 133 272 -20 38 -36 80 -36 94 0 43 30 91 81 128 112
81 117 190 11 272 -97 74 -114 145 -56 232 38 58 44 141 15 189 -21 33 -73 61
-148 81 -26 7 -53 24 -72 47 -31 35 -31 35 -29 139 3 113 -4 134 -66 179 -24
18 -40 21 -127 18 -120 -3 -152 9 -180 71 -10 23 -19 51 -19 62 0 11 -10 37
-23 58 -52 86 -127 99 -238 42 -38 -19 -83 -35 -101 -35 -45 0 -90 29 -124 81
-54 80 -144 110 -211 70z m104 -19 c12 -7 29 -12 38 -12 9 0 13 -4 10 -10 -3
-5 0 -10 7 -11 7 0 27 -19 43 -41 70 -96 129 -107 246 -46 58 30 85 38 109 35
52 -9 103 -56 108 -102 2 -16 10 -41 19 -54 9 -13 10 -20 3 -16 -15 10 2 -21
28 -50 43 -48 150 -72 200 -46 11 5 35 3 64 -5 72 -22 88 -56 85 -180 -2 -91
0 -102 22 -131 24 -33 71 -60 152 -88 99 -34 120 -105 63 -214 -58 -113 -48
-170 48 -253 33 -29 65 -64 72 -78 17 -33 2 -102 -27 -128 -12 -11 -43 -39
-69 -62 -73 -64 -80 -125 -27 -225 36 -67 47 -128 29 -150 -7 -8 -9 -15 -5
-15 10 0 -47 -46 -70 -55 -11 -4 -33 -9 -48 -10 -15 -2 -36 -10 -47 -20 -10
-9 -24 -14 -31 -9 -7 4 -10 3 -5 -4 3 -6 -3 -13 -14 -17 -11 -3 -19 -9 -18
-13 0 -4 -6 -24 -16 -45 -13 -30 -15 -54 -10 -116 11 -132 -30 -173 -167 -166
-135 7 -188 -29 -223 -150 -24 -81 -68 -123 -128 -122 -24 1 -45 4 -48 7 -3 3
-29 17 -58 33 -106 55 -186 29 -271 -90 -16 -22 -66 -44 -101 -45 -44 0 -74
19 -116 76 -46 61 -95 87 -160 85 -30 -1 -59 -8 -65 -16 -6 -7 -17 -13 -23
-13 -7 0 -29 -9 -51 -20 -49 -25 -72 -25 -112 0 -38 23 -59 53 -68 100 -12 59
-52 118 -96 140 -32 17 -51 20 -102 15 -102 -10 -126 -7 -154 20 -34 31 -36
40 -37 155 -1 76 -5 102 -21 130 -23 38 -87 76 -145 85 -20 3 -50 19 -69 35
-28 26 -34 40 -38 83 -4 45 0 58 26 97 37 56 45 88 37 144 -7 46 -35 83 -98
130 -23 17 -43 45 -54 72 -22 59 -9 89 68 155 32 29 66 65 75 82 23 45 12 121
-26 185 -45 76 -43 123 8 173 23 24 49 39 65 40 55 3 106 29 139 72 25 33 27
42 27 136 0 171 27 194 216 181 78 -5 152 56 175 144 19 76 31 97 70 117 52
26 75 24 139 -12 111 -63 194 -52 261 33 45 58 49 61 88 80 37 18 46 18 78 0z"/>
<path d="M1325 2709 c-38 -6 -80 -11 -92 -12 -13 -1 -23 -6 -23 -11 0 -5 -3
-7 -6 -4 -3 4 -20 2 -37 -3 -18 -6 -39 -12 -49 -14 -9 -2 -30 -11 -47 -19 -17
-9 -33 -16 -36 -16 -3 0 -18 -6 -34 -14 -16 -9 -31 -12 -35 -9 -3 4 -6 2 -6
-4 0 -6 -11 -14 -24 -17 -25 -6 -178 -105 -184 -118 -2 -5 -10 -8 -18 -8 -9 0
-12 -4 -9 -10 3 -5 -1 -10 -9 -10 -9 0 -16 -7 -16 -16 0 -8 -4 -13 -8 -10 -9
6 -111 -96 -138 -139 -10 -16 -29 -41 -41 -55 -13 -14 -23 -30 -23 -37 0 -7
-4 -13 -9 -13 -18 0 -133 -243 -146 -309 -7 -36 -18 -77 -23 -85 -17 -30 -26
-330 -13 -425 15 -99 46 -214 68 -248 8 -13 13 -23 10 -23 -9 0 22 -64 77
-163 27 -48 53 -87 57 -87 4 0 18 -17 30 -37 44 -72 198 -214 309 -284 67 -42
185 -99 205 -99 8 0 15 -5 15 -12 0 -6 3 -9 6 -5 4 3 23 0 43 -8 32 -12 62
-20 111 -32 115 -26 423 -26 505 1 28 9 60 16 73 16 12 0 34 7 47 16 14 9 25
13 25 10 0 -4 12 2 27 11 15 10 29 16 30 14 14 -14 246 125 317 189 71 66 144
140 137 140 -3 0 -1 4 5 8 25 17 112 143 150 217 112 217 160 500 123 724 -13
80 -77 294 -91 302 -5 3 -9 8 -8 10 6 10 -33 83 -86 165 -32 49 -57 93 -55 99
1 5 0 7 -4 3 -4 -4 -24 12 -44 36 -50 58 -111 116 -121 116 -5 0 -13 6 -17 13
-21 34 -293 202 -293 181 0 -4 -7 -1 -15 6 -20 16 -188 65 -259 75 -74 11
-287 13 -351 4z m342 -30 c369 -57 700 -302 871 -644 16 -33 43 -103 60 -155
173 -543 -66 -1125 -571 -1391 -466 -244 -1030 -149 -1396 236 -209 221 -316
492 -314 805 1 207 37 356 132 537 235 446 720 690 1218 612z"/>
<path d="M1290 2636 c-405 -74 -735 -355 -873 -741 -70 -197 -80 -455 -26
-655 85 -313 302 -581 587 -724 177 -89 341 -122 563 -113 167 6 279 32 416
97 322 151 544 426 630 782 28 113 25 394 -5 507 -111 420 -420 728 -832 831
-110 28 -350 36 -460 16z m356 -47 c231 -32 492 -173 641 -346 185 -215 273
-447 273 -720 0 -511 -358 -951 -858 -1053 -118 -24 -298 -26 -412 -6 -222 40
-428 152 -586 319 -501 527 -348 1385 305 1707 195 97 413 130 637 99z"/>
<path d="M1454 2564 c3 -9 6 -40 6 -70 0 -30 5 -54 10 -54 6 0 10 21 10 48 l0
47 30 -47 c17 -27 34 -48 39 -48 9 0 21 57 21 103 0 29 -19 38 -22 10 0 -10
-2 -22 -3 -28 -2 -5 -3 -17 -4 -25 -1 -8 -15 6 -32 33 -30 44 -69 67 -55 31z"/>
<path d="M1313 2563 c-9 -3 -11 -17 -7 -46 10 -63 20 -77 57 -77 46 0 57 16
57 77 0 41 -3 53 -15 53 -13 0 -15 -9 -9 -49 5 -42 4 -51 -13 -59 -29 -16 -42
-2 -50 54 -5 34 -12 49 -20 47z"/>
<path d="M1606 2548 c-15 -71 -15 -106 -3 -111 10 -4 16 13 23 64 8 54 7 69
-3 69 -7 0 -15 -10 -17 -22z"/>
<path d="M1660 2528 c4 -18 11 -50 15 -70 8 -49 25 -48 61 4 44 65 45 66 34
73 -5 3 -23 -15 -39 -40 -32 -50 -36 -49 -40 10 -3 47 -7 55 -26 55 -10 0 -11
-8 -5 -32z"/>
<path d="M1143 2523 c-16 -6 -18 -143 -3 -143 6 0 10 9 10 19 0 25 58 48 67
26 5 -16 33 -21 33 -7 0 17 -95 110 -107 105z m34 -52 c13 -20 8 -31 -14 -31
-7 0 -13 11 -13 25 0 30 11 32 27 6z"/>
<path d="M1789 2473 c-7 -27 -15 -53 -17 -59 -1 -6 15 -19 38 -28 47 -19 50
-19 50 -7 0 5 -13 14 -30 20 -28 9 -39 29 -24 44 4 3 22 0 40 -8 21 -9 34 -10
34 -4 0 6 -13 16 -30 22 -18 7 -30 19 -30 29 0 22 -1 22 43 3 42 -17 47 -18
47 -6 0 8 -76 41 -97 41 -6 0 -17 -21 -24 -47z"/>
<path d="M986 2449 c-33 -26 -34 -62 0 -95 29 -30 64 -27 101 8 21 19 20 39
-2 66 -1 1 -14 -3 -28 -9 -31 -14 -27 -30 4 -22 27 7 22 -14 -7 -34 -17 -11
-23 -10 -42 3 -41 29 -20 89 29 82 12 -2 24 3 26 10 7 20 -52 14 -81 -9z"/>
<path d="M1911 2411 c-23 -45 -27 -60 -17 -64 8 -3 18 5 25 20 9 20 14 23 26
13 7 -6 15 -25 17 -42 2 -18 9 -33 16 -36 10 -3 12 4 7 31 -6 32 -5 36 17 39
17 2 23 9 23 28 0 19 -10 30 -42 48 l-42 23 -30 -60z m78 12 c30 -26 14 -51
-20 -31 -13 7 -25 13 -27 14 -6 2 11 34 18 34 4 0 17 -8 29 -17z"/>
<path d="M1345 2406 c-417 -70 -722 -403 -751 -821 -22 -315 130 -626 391
-800 276 -184 603 -204 900 -55 180 89 309 218 396 395 72 146 92 230 92 395
1 107 -4 152 -21 217 -85 326 -335 576 -654 653 -110 26 -252 33 -353 16z
m350 -54 c147 -40 274 -111 383 -216 68 -64 180 -222 167 -234 -4 -4 -10 -1
-12 6 -3 6 -16 12 -29 12 -13 0 -24 5 -24 11 0 7 -10 5 -25 -5 -18 -12 -25
-13 -25 -4 0 7 -13 0 -27 -17 -15 -16 -30 -29 -34 -28 -4 2 -18 -21 -31 -49
l-23 -52 -6 63 c-3 35 -12 66 -18 71 -7 4 -12 10 -11 14 4 15 -13 70 -18 57
-3 -9 -11 -3 -23 20 -10 19 -18 28 -19 20 0 -10 -7 -7 -25 9 -14 13 -25 19
-25 13 0 -6 -12 -8 -27 -6 l-28 5 23 -17 c12 -9 20 -20 17 -25 -3 -4 6 -11 20
-14 14 -4 25 -13 25 -21 0 -8 9 -19 21 -25 11 -7 18 -14 16 -17 -3 -2 8 -32
25 -65 16 -33 28 -62 25 -64 -2 -2 -19 17 -37 43 -19 26 -35 42 -38 35 -2 -7
-16 -3 -39 11 -20 12 -33 15 -29 8 6 -9 0 -11 -28 -5 -27 5 -36 3 -34 -6 2 -7
-7 -16 -20 -19 -13 -3 -23 -10 -22 -14 1 -5 -11 -18 -25 -29 -31 -24 -28 -32
9 -19 18 7 26 7 26 0 0 -6 14 -1 30 11 17 12 30 16 30 10 0 -6 10 -8 26 -4 16
4 25 3 21 -2 -3 -6 9 -11 26 -12 17 -2 36 -7 41 -12 6 -6 18 -10 27 -10 10 0
20 -4 23 -9 3 -5 -15 -6 -39 -3 -27 3 -45 1 -45 -5 0 -6 -13 -16 -30 -23 -16
-7 -30 -17 -30 -22 0 -5 -12 -20 -27 -33 -16 -13 -22 -25 -15 -25 9 0 8 -6 -3
-24 -9 -14 -18 -49 -21 -78 l-4 -53 15 33 c8 18 19 31 24 28 5 -3 12 10 15 29
4 20 11 33 16 30 5 -3 16 8 25 26 9 17 19 28 22 25 4 -3 18 4 32 16 l25 23
-17 -27 c-10 -16 -14 -28 -10 -28 3 0 -3 -10 -14 -22 -25 -28 -50 -73 -34 -64
6 4 11 3 11 -3 0 -5 -4 -12 -9 -15 -5 -3 -14 -20 -20 -36 -7 -22 -7 -29 1 -24
7 5 8 -10 3 -46 -5 -38 -4 -51 4 -46 7 5 11 -5 11 -28 0 -19 5 -38 10 -41 6
-4 10 10 10 35 0 23 4 39 9 36 5 -3 6 15 3 39 -3 30 -1 45 7 45 6 0 11 16 11
36 0 19 4 33 9 30 4 -3 13 13 20 35 7 22 16 37 20 34 5 -2 12 10 16 28 10 47
13 28 18 -127 2 -76 8 -141 13 -145 5 -3 10 -22 12 -41 1 -19 7 -39 12 -44 6
-6 10 -18 10 -27 0 -22 50 -134 84 -187 14 -23 24 -42 22 -42 -2 0 -36 16 -74
35 -39 19 -103 45 -142 59 -39 13 -73 26 -75 28 -3 2 34 2 81 0 47 -3 89 -1
94 4 5 5 -39 9 -103 8 -62 -1 -146 5 -187 12 -41 7 -88 15 -105 17 -18 2 -9 5
22 6 55 1 110 26 118 53 3 9 12 19 20 22 19 7 19 -4 0 -18 -8 -6 -18 -26 -21
-45 l-7 -33 44 8 c24 4 52 8 62 8 14 0 17 10 17 54 l0 54 -65 -6 c-36 -3 -65
-2 -65 3 0 5 4 11 9 13 5 2 11 12 13 23 3 17 -3 20 -42 23 -58 4 -157 -16
-164 -34 -3 -8 -1 -14 4 -14 6 0 10 5 10 10 0 6 29 10 66 10 56 0 65 -2 62
-17 -2 -14 -15 -16 -75 -14 -40 1 -73 -1 -73 -6 0 -4 29 -7 65 -6 52 1 65 -1
65 -13 0 -8 5 -12 10 -9 6 3 16 3 23 -2 7 -4 -29 -10 -82 -13 -63 -3 -96 -9
-99 -17 -2 -7 4 -13 15 -13 15 0 16 2 3 10 -10 7 9 10 63 10 62 0 77 -3 77
-15 0 -11 -11 -15 -37 -15 -83 -1 -390 -19 -419 -25 -30 -7 -30 -6 -26 29 4
33 2 36 -23 36 -25 0 -26 -2 -20 -37 l6 -38 -108 -33 c-59 -19 -141 -49 -180
-67 -40 -19 -73 -32 -73 -30 0 2 14 28 31 57 17 29 32 58 34 63 1 6 9 26 17
45 19 44 38 103 42 133 2 12 7 31 12 42 4 11 8 79 8 152 1 130 8 163 21 103 4
-17 10 -28 14 -25 5 2 13 -14 20 -36 7 -22 16 -37 21 -34 6 4 10 -9 10 -29 0
-20 5 -36 11 -36 7 0 9 -16 4 -46 -4 -30 -2 -44 5 -39 6 4 10 -11 11 -42 0
-36 3 -43 9 -28 5 11 9 33 9 48 1 16 4 26 9 24 12 -8 6 131 -7 146 -8 11 -9
16 -1 19 7 2 -1 21 -19 45 -16 22 -28 43 -25 46 2 2 -2 10 -11 17 -8 7 -15 17
-15 23 0 6 10 1 23 -11 13 -12 26 -20 29 -16 4 3 12 -5 19 -18 6 -12 18 -26
25 -31 7 -4 15 -21 19 -38 4 -17 10 -28 13 -24 3 3 14 -9 24 -27 l18 -33 -7
55 c-3 30 -13 65 -21 78 -11 17 -11 22 -2 22 9 0 7 7 -5 20 -10 11 -24 20 -31
20 -7 0 -11 6 -8 14 3 8 -7 18 -25 26 -17 7 -31 17 -31 23 0 6 -18 8 -45 5
-24 -3 -42 -2 -39 3 3 5 13 9 23 9 9 0 21 4 27 10 5 5 24 10 41 12 17 1 29 6
26 10 -2 5 7 6 21 2 17 -4 26 -2 26 6 0 6 12 2 27 -10 15 -12 29 -17 31 -11 2
6 12 7 28 1 22 -9 24 -8 14 10 -6 11 -15 20 -21 20 -6 0 -8 4 -4 9 3 5 -10 15
-29 22 -19 7 -32 17 -29 22 4 6 -6 8 -26 4 -20 -4 -30 -3 -26 3 8 13 -26 1
-46 -17 -13 -11 -18 -11 -21 -2 -2 7 -21 -9 -41 -36 -39 -51 -47 -53 -22 -5 9
17 13 30 10 30 -4 0 3 14 15 30 12 17 18 30 13 30 -4 1 2 9 14 19 12 10 20 21
16 24 -3 4 5 11 18 17 13 6 33 23 43 37 19 26 19 26 -2 21 -13 -4 -22 -1 -22
5 0 6 -11 0 -24 -12 -17 -16 -25 -19 -28 -10 -3 8 -11 -1 -18 -18 -10 -21 -17
-28 -22 -20 -6 9 -8 9 -8 -1 0 -7 -8 -29 -17 -50 -10 -20 -20 -64 -23 -97 l-5
-60 -27 58 c-15 32 -32 56 -36 53 -5 -3 -17 3 -27 14 -10 11 -21 17 -26 15 -4
-3 -11 -1 -14 5 -8 13 -77 2 -87 -14 -4 -6 -10 -7 -14 -4 -14 15 74 138 160
224 142 141 274 207 496 248 53 10 247 -4 315 -22z m-953 -483 c2 -7 12 -7 31
0 18 7 26 7 22 1 -4 -6 5 -10 20 -10 14 0 24 -4 20 -9 -3 -5 4 -12 14 -16 11
-3 37 -22 58 -41 l38 -35 -32 15 c-35 17 -78 22 -69 7 3 -5 -10 -12 -30 -16
-20 -3 -33 -9 -30 -12 3 -4 -9 -15 -27 -26 -20 -13 -27 -22 -19 -25 10 -3 8
-10 -8 -27 -12 -13 -23 -34 -24 -46 -2 -13 -6 -35 -10 -49 -7 -24 -7 -24 18 5
14 17 26 26 26 20 0 -5 9 8 19 30 11 22 20 33 20 25 1 -9 9 -3 21 15 11 17 20
24 20 17 0 -9 9 -7 30 8 35 25 39 16 8 -17 -12 -13 -16 -23 -9 -23 6 0 2 -10
-9 -22 -27 -28 -47 -63 -31 -54 6 4 11 3 11 -3 0 -5 -4 -12 -9 -15 -5 -3 -14
-20 -20 -36 -5 -17 -7 -28 -2 -26 4 3 8 -18 8 -47 0 -29 5 -70 10 -92 l9 -40
8 48 c4 26 10 45 14 43 4 -2 5 16 3 41 -2 32 0 43 8 39 7 -5 11 6 11 34 0 23
4 39 9 35 5 -3 15 11 21 30 6 19 15 33 19 30 5 -2 14 14 20 37 23 76 34 30 28
-114 -6 -149 -22 -218 -74 -323 -36 -73 -98 -165 -111 -165 -11 0 -60 91 -88
167 -69 180 -71 388 -7 576 19 56 31 77 44 77 9 0 19 -5 21 -11z m1486 0 c7
20 31 11 46 -17 28 -55 59 -198 63 -297 8 -158 -30 -309 -115 -463 l-24 -43
-40 53 c-112 150 -167 354 -148 547 l5 54 25 -39 c14 -22 32 -54 39 -71 7 -18
17 -33 22 -33 5 0 9 -16 9 -36 0 -24 4 -33 12 -28 8 5 9 -6 5 -40 -4 -26 -3
-45 2 -42 5 3 12 -13 17 -37 l8 -42 4 38 c2 20 8 37 13 37 6 0 7 20 3 52 -5
37 -4 49 5 44 12 -8 -4 37 -22 62 -6 8 -5 12 2 12 12 0 -23 58 -44 72 -6 5 -4
8 5 8 10 0 5 9 -13 26 -37 34 -27 43 14 13 19 -13 29 -17 25 -8 -4 7 4 1 17
-15 17 -20 26 -24 29 -15 3 8 10 -3 17 -24 7 -20 16 -35 21 -32 5 3 18 -7 30
-22 l21 -28 -7 25 c-4 14 -8 33 -9 43 -1 9 -11 30 -23 46 -15 21 -18 31 -9 34
6 2 -3 11 -21 21 -18 9 -30 21 -27 26 3 5 -10 12 -30 16 -19 3 -32 10 -29 15
9 14 -34 10 -66 -6 -17 -9 -30 -12 -30 -7 0 5 11 15 25 22 14 7 25 17 25 20 0
4 13 13 30 20 16 7 27 16 24 21 -3 5 4 9 15 9 12 0 21 4 21 10 0 6 10 6 27 -1
19 -7 29 -7 31 0z m-1068 -19 c0 -6 -13 -9 -29 -8 -16 1 -36 -4 -45 -11 -21
-17 -21 -7 0 13 17 18 74 22 74 6z m723 1 c4 -1 7 -5 7 -10 0 -11 -70 -3 -83
9 -6 5 38 6 76 1z m-865 -107 c21 0 47 -7 56 -15 52 -43 78 -69 67 -69 -6 0
-14 6 -17 14 -3 8 -23 24 -45 35 -38 20 -39 20 -49 1 -8 -15 -4 -30 16 -67 15
-26 32 -51 38 -55 8 -6 8 -8 0 -8 -6 0 -19 9 -29 20 -10 11 -15 20 -11 20 4 0
-7 18 -24 40 -17 22 -38 40 -46 40 -8 0 -14 5 -14 10 0 6 -4 10 -8 10 -14 0
-53 -41 -47 -50 3 -4 -1 -10 -8 -13 -8 -3 -22 -22 -31 -42 -10 -20 -20 -34
-23 -31 -3 3 9 28 26 56 35 57 39 81 14 101 -11 10 -14 10 -9 2 5 -9 0 -13
-14 -13 -12 0 -30 -5 -41 -10 -13 -8 -19 -7 -19 0 0 6 8 13 18 16 9 3 27 11
40 17 16 7 29 8 40 1 22 -12 62 -6 62 9 0 7 4 6 10 -3 5 -9 25 -15 48 -16z
m1116 -3 c38 -15 28 -24 -13 -10 -23 8 -35 8 -45 0 -14 -12 -10 -61 5 -61 5 0
9 -6 9 -12 0 -7 -15 5 -34 27 -29 34 -36 38 -50 26 -9 -7 -16 -10 -16 -5 0 5
-14 -7 -30 -26 -21 -25 -30 -30 -30 -18 0 9 4 19 10 23 14 9 0 35 -19 35 -9 0
-22 -5 -28 -11 -6 -6 -17 -9 -24 -7 -23 8 60 50 86 44 13 -3 26 -3 28 1 8 12
118 7 151 -6z m50 -37 c3 -8 2 -12 -4 -9 -6 3 -10 10 -10 16 0 14 7 11 14 -7z
m-258 -80 c-9 -8 -16 -22 -16 -30 0 -8 -4 -14 -10 -14 -5 0 -10 2 -10 5 0 12
33 55 42 55 5 0 2 -7 -6 -16z m182 4 c-2 -3 5 -15 15 -26 12 -13 15 -22 8 -27
-6 -3 -16 6 -21 21 -6 15 -13 31 -17 37 -3 5 0 8 6 6 7 -3 11 -7 9 -11z m-248
-372 c0 -24 -22 -37 -47 -29 -29 10 -4 53 29 53 12 0 18 -8 18 -24z m-168 -81
c57 -9 148 -31 204 -50 102 -34 264 -109 264 -122 0 -4 -21 -28 -46 -54 l-46
-47 -102 49 c-152 72 -270 100 -446 106 -210 7 -369 -26 -550 -116 l-75 -37
-48 53 -49 52 82 41 c109 55 269 108 377 124 120 19 312 19 435 1z m-882 -129
c0 -2 -8 -10 -17 -17 -16 -13 -17 -12 -4 4 13 16 21 21 21 13z m860 -16 c139
-27 355 -107 374 -138 9 -15 -84 -83 -181 -132 -212 -106 -467 -117 -690 -30
-81 31 -206 105 -241 143 l-23 24 93 42 c99 46 241 87 341 100 78 11 255 6
327 -9z m530 -6 c0 -2 -7 -4 -15 -4 -8 0 -15 4 -15 10 0 5 7 7 15 4 8 -4 15
-8 15 -10z"/>
<path d="M1402 2298 c-7 -7 -12 -20 -12 -29 0 -10 -6 -20 -12 -22 -10 -4 -10
-6 0 -6 6 -1 12 -10 12 -20 0 -11 -6 -21 -12 -24 -10 -3 -9 -8 2 -22 14 -17
13 -18 -8 -13 -22 6 -23 4 -17 -25 4 -18 8 -36 9 -42 2 -18 21 -32 35 -27 11
4 12 -1 8 -19 -5 -18 -1 -28 13 -37 12 -7 21 -8 25 -2 10 16 29 12 54 -11 l23
-22 -7 22 c-3 11 -3 21 1 21 13 0 54 -51 49 -61 -3 -5 1 -6 9 -3 10 4 16 1 16
-7 0 -9 3 -10 11 -2 8 8 5 17 -12 34 -21 21 -22 23 -4 29 17 6 17 7 -3 12 -12
4 -22 2 -22 -3 0 -5 -4 -9 -10 -9 -5 0 -10 6 -10 13 0 7 -5 18 -12 25 -8 8
-15 7 -28 -8 -15 -17 -19 -18 -29 -6 -7 8 -13 28 -13 45 -1 17 -5 28 -9 25 -5
-3 -6 2 -3 10 3 9 11 16 18 16 6 0 4 5 -4 10 -13 8 -12 11 6 16 28 8 49 51 33
70 -7 8 -9 28 -5 47 5 25 3 34 -8 34 -8 0 -12 -6 -9 -15 5 -12 1 -11 -25 2
-37 19 -35 19 -50 4z m55 -45 c4 -10 13 -24 21 -32 12 -12 9 -18 -17 -38 -17
-14 -31 -33 -31 -43 0 -10 -4 -21 -10 -25 -5 -3 -6 -13 -3 -23 6 -15 5 -15
-10 -3 -21 17 -22 38 -2 58 8 8 12 20 8 26 -7 12 -5 76 4 90 8 13 34 7 40 -10z"/>
<path d="M1470 2080 c0 -5 5 -10 11 -10 5 0 7 5 4 10 -3 6 -8 10 -11 10 -2 0
-4 -4 -4 -10z"/>
<path d="M1399 1974 c12 -15 21 -33 21 -41 0 -24 25 -9 28 17 4 26 -20 50 -51
50 -18 0 -17 -1 2 -26z"/>
<path d="M1556 1933 c-12 -12 -6 -23 13 -23 11 0 22 -6 24 -12 4 -9 6 -8 6 2
1 17 -33 43 -43 33z"/>
<path d="M1620 1935 c0 -3 7 -17 16 -31 9 -13 14 -28 10 -32 -4 -3 -11 0 -16
8 -6 10 -9 4 -8 -18 1 -23 5 -31 15 -28 9 4 13 -3 13 -19 0 -18 -6 -24 -27
-27 -14 -2 -28 -9 -31 -15 -6 -20 21 -15 55 10 23 17 29 27 22 38 -13 20 -11
29 6 29 15 0 17 53 1 78 -7 12 -56 18 -56 7z"/>
<path d="M1357 1906 c-4 -10 -1 -13 8 -9 8 3 12 9 9 14 -7 12 -11 11 -17 -5z"/>
<path d="M1480 1891 c12 -8 13 -14 3 -29 -12 -20 -2 -48 15 -38 6 3 13 0 15
-6 4 -9 6 -7 6 3 1 9 8 22 16 29 21 17 19 27 -7 33 -13 2 -32 8 -43 12 -16 5
-17 5 -5 -4z"/>
<path d="M1325 1860 c-3 -5 -4 -14 -1 -19 4 -5 -26 -41 -66 -80 -40 -39 -67
-71 -61 -71 7 0 41 28 76 63 48 47 65 70 65 90 0 29 -3 33 -13 17z"/>
<path d="M1540 1835 c-7 -8 -10 -21 -7 -30 4 -8 -1 -19 -11 -24 -15 -9 -15
-11 2 -30 26 -29 33 -27 47 14 7 19 16 35 20 35 11 0 18 39 8 46 -5 3 -9 -1
-9 -8 0 -8 -7 -23 -16 -34 -15 -18 -15 -18 -10 8 7 31 -6 44 -24 23z"/>
<path d="M1688 1745 c4 -23 -4 -30 -30 -26 -5 0 -8 -6 -8 -15 0 -14 -3 -14
-15 -4 -12 10 -15 10 -15 -4 0 -22 -19 -20 -41 6 -11 11 -19 16 -19 9 0 -17
-21 -37 -47 -45 -12 -4 -24 -18 -27 -33 -9 -35 1 -41 15 -9 14 30 29 34 29 9
0 -14 2 -15 9 -4 5 7 13 11 19 7 6 -3 12 1 14 9 3 14 6 14 26 -1 18 -12 20
-19 12 -29 -16 -19 -4 -50 27 -70 21 -14 27 -15 34 -4 7 11 9 10 9 -3 0 -11 5
-15 14 -12 13 5 13 44 0 66 -3 4 -1 8 5 8 6 0 8 8 5 18 -5 16 -5 16 9 0 8 -10
19 -18 24 -18 13 0 25 42 14 50 -7 5 -9 11 -12 58 -2 17 -37 62 -49 62 -4 0
-5 -11 -2 -25z m28 -68 c1 -10 -9 -29 -22 -42 -13 -13 -24 -34 -24 -45 0 -15
-5 -20 -17 -18 -14 2 -19 14 -20 48 -2 40 1 47 25 62 33 20 54 19 58 -5z"/>
<path d="M1470 1581 c0 -6 5 -13 10 -16 6 -3 10 1 10 9 0 9 -4 16 -10 16 -5 0
-10 -4 -10 -9z"/>
<path d="M1725 1580 c3 -5 8 -10 11 -10 2 0 4 5 4 10 0 6 -5 10 -11 10 -5 0
-7 -4 -4 -10z"/>
<path d="M1280 1454 c-17 -15 -34 -24 -37 -20 -4 3 2 13 13 21 19 14 18 14 -3
15 -13 0 -32 -13 -47 -32 -14 -18 -26 -28 -26 -22 0 5 5 15 12 22 17 17 -4 15
-30 -4 -33 -23 -26 -59 11 -59 16 -1 31 3 33 7 3 4 16 8 29 8 17 0 32 13 54
45 17 25 29 45 26 45 -2 0 -18 -12 -35 -26z"/>
<path d="M1301 1410 c-12 -17 -17 -30 -12 -30 12 0 46 48 39 55 -2 3 -14 -9
-27 -25z"/>
<path d="M1202 1362 c-78 -3 -82 -4 -72 -22 9 -17 21 -20 79 -20 62 0 69 2 74
22 4 12 5 22 4 23 -1 0 -39 -1 -85 -3z"/>
<path d="M1164 1294 c3 -9 6 -18 6 -20 0 -2 15 -4 33 -4 21 0 36 7 45 20 12
19 10 20 -39 20 -43 0 -50 -3 -45 -16z"/>
<path d="M1900 1258 l0 -53 38 -4 c80 -8 86 -7 90 14 2 16 1 17 -7 5 -11 -16
-13 -9 -16 59 -1 22 -6 25 -53 29 l-52 3 0 -53z m61 22 c21 -12 27 -59 7 -56
-31 5 -47 22 -41 44 6 25 7 26 34 12z"/>
<path d="M2011 1264 c0 -11 3 -14 6 -6 3 7 2 16 -1 19 -3 4 -6 -2 -5 -13z"/>
<path d="M1441 1124 c1 -24 3 -30 6 -16 2 12 9 20 14 17 15 -10 10 12 -6 25
-13 11 -15 7 -14 -26z"/>
<path d="M1477 1133 c-6 -31 0 -46 14 -38 12 8 12 65 0 65 -5 0 -11 -12 -14
-27z"/>
<path d="M1520 1148 c0 -7 -3 -23 -7 -36 -5 -21 -3 -23 23 -20 25 3 29 7 29
33 0 23 -5 31 -22 33 -14 2 -23 -2 -23 -10z m38 -26 c2 -15 -2 -22 -12 -22
-11 0 -16 9 -16 26 0 31 23 28 28 -4z"/>
<path d="M1371 1119 c-15 -42 -15 -42 14 -23 15 10 25 12 25 5 0 -6 5 -11 10
-11 6 0 4 13 -5 30 -20 38 -30 38 -44 -1z m25 -6 c-10 -10 -19 5 -10 18 6 11
8 11 12 0 2 -7 1 -15 -2 -18z"/>
<path d="M1624 1136 c-15 -39 23 -74 50 -46 8 9 4 10 -17 4 -26 -6 -28 -4 -25
17 2 18 9 23 26 22 13 -2 21 1 17 7 -9 15 -45 12 -51 -4z"/>
<path d="M1258 1110 c2 -16 8 -33 13 -36 5 -3 6 9 3 26 -5 24 -3 30 10 30 22
0 33 -29 15 -42 -12 -8 -11 -9 1 -5 8 2 15 15 15 28 0 20 -6 25 -31 27 -29 3
-30 1 -26 -28z"/>
<path d="M1700 1125 c-20 -25 -8 -50 25 -50 21 0 31 5 33 18 4 21 -14 47 -33
47 -7 0 -18 -7 -25 -15z m50 -21 c0 -19 -28 -30 -42 -16 -8 8 -8 15 1 26 14
17 41 10 41 -10z"/>
<path d="M1184 1116 c-11 -28 1 -51 25 -51 32 0 49 28 32 49 -17 20 -50 21
-57 2z m46 -21 c0 -25 -23 -35 -35 -15 -10 16 2 40 20 40 9 0 15 -9 15 -25z"/>
<path d="M1774 1094 c-8 -29 6 -47 32 -42 17 3 40 58 24 58 -5 0 -10 -10 -12
-22 -5 -34 -34 -30 -30 5 4 34 -6 35 -14 1z"/>
<path d="M1113 1103 c-16 -6 -17 -49 -2 -58 16 -11 59 4 59 20 0 8 -8 15 -17
15 -15 0 -16 -2 -3 -10 12 -8 12 -10 -3 -16 -10 -4 -23 -2 -29 4 -15 15 -1 45
17 38 8 -3 17 -1 20 4 6 10 -21 12 -42 3z"/>
<path d="M1850 1086 c0 -8 -3 -23 -6 -33 -5 -16 -4 -16 7 1 11 18 12 17 24
-10 l13 -29 11 28 c15 39 13 57 -3 28 l-13 -24 -7 27 c-7 27 -26 36 -26 12z"/>
<path d="M1013 1068 c-18 -9 -20 -14 -11 -39 5 -16 14 -29 19 -29 4 0 6 7 2
16 -4 12 0 14 23 9 16 -3 23 -2 17 1 -7 3 -13 14 -13 24 0 25 -10 30 -37 18z
m22 -18 c-3 -5 -10 -10 -16 -10 -5 0 -9 5 -9 10 0 6 7 10 16 10 8 0 12 -4 9
-10z"/>
<path d="M1929 1071 c12 -8 13 -14 3 -35 -7 -15 -8 -26 -2 -26 5 0 12 11 16
24 4 17 11 23 22 20 10 -3 6 2 -8 10 -14 8 -29 15 -35 15 -5 1 -4 -3 4 -8z"/>
<path d="M1982 1025 c-16 -34 -15 -40 3 -25 12 10 16 8 24 -11 7 -18 10 -19
10 -6 1 9 6 17 11 17 18 0 11 29 -9 40 -26 14 -26 14 -39 -15z m48 -6 c0 -11
-27 -12 -34 0 -3 4 -3 11 0 14 8 8 34 -3 34 -14z"/>
<path d="M933 1034 c-18 -8 -16 -39 3 -55 21 -17 49 0 49 32 0 24 -24 34 -52
23z m44 -20 c3 -8 1 -20 -6 -27 -14 -14 -47 15 -37 32 10 16 36 13 43 -5z"/>
<path d="M877 1006 c-21 -16 -21 -27 -1 -52 10 -12 14 -14 11 -4 -2 8 3 20 12
27 14 10 12 11 -9 7 -24 -5 -24 -5 -6 10 24 19 18 29 -7 12z"/>
<path d="M2061 1003 c0 -12 -4 -29 -8 -39 -5 -14 0 -13 25 6 18 13 30 26 27
28 -2 3 -11 -1 -19 -7 -12 -10 -15 -8 -19 11 -4 22 -4 22 -6 1z"/>
<path d="M1273 925 c-13 -12 -23 -28 -23 -36 0 -10 3 -10 12 -1 22 22 28 12
28 -48 0 -47 3 -60 15 -60 12 0 15 16 15 85 0 92 -7 101 -47 60z"/>
<path d="M1386 934 c-20 -20 -21 -68 -1 -84 8 -7 25 -10 40 -6 28 7 31 -1 12
-28 -12 -16 -16 -17 -35 -5 -25 16 -40 6 -22 -16 14 -16 47 -20 68 -6 31 19
31 133 0 152 -20 13 -45 11 -62 -7z m52 -33 c5 -33 -14 -49 -34 -29 -13 13
-14 20 -4 37 14 27 34 23 38 -8z"/>
<path d="M1537 903 c-52 -73 -53 -83 -11 -83 27 0 37 -5 41 -20 6 -24 23 -27
23 -4 0 9 8 23 18 30 16 13 16 13 0 14 -15 0 -18 9 -18 55 0 30 -4 55 -9 55
-5 0 -25 -21 -44 -47z m33 -33 c0 -25 -4 -30 -25 -30 -24 0 -24 0 -7 30 22 38
32 38 32 0z"/>
<path d="M1630 935 c0 -11 11 -15 40 -15 l39 0 -20 -35 c-29 -49 -41 -105 -23
-105 7 0 16 12 19 28 3 15 17 50 30 77 14 28 25 54 25 58 0 4 -25 7 -55 7 -42
0 -55 -3 -55 -15z"/>
<path d="M861 2372 c-22 -14 -41 -29 -41 -33 0 -11 72 -99 81 -99 14 0 10 22
-7 42 -16 16 -16 18 0 24 9 3 30 1 47 -6 22 -10 33 -10 41 -2 9 9 3 13 -21 18
-29 6 -31 9 -26 35 5 21 2 30 -13 38 -15 8 -28 5 -61 -17z m49 -15 c0 -8 -8
-21 -19 -31 -16 -15 -19 -15 -31 -1 -11 13 -10 18 6 30 24 18 44 19 44 2z"/>
<path d="M2057 2373 c-12 -12 -7 -34 14 -65 15 -20 18 -33 11 -40 -14 -14 -31
-2 -43 30 -7 18 -13 22 -20 15 -25 -25 33 -80 71 -68 26 8 25 39 0 75 -13 18
-16 31 -10 35 14 9 30 -3 41 -32 8 -22 29 -24 29 -2 0 31 -73 72 -93 52z"/>
<path d="M745 2277 l-38 -33 49 -47 49 -46 34 34 c41 41 34 61 -8 21 -25 -24
-29 -25 -41 -11 -12 14 -10 20 16 40 16 13 26 27 21 31 -4 4 -20 -4 -35 -19
-22 -21 -31 -24 -40 -15 -9 9 -5 19 20 45 41 43 23 43 -27 0z"/>
<path d="M2141 2255 c-59 -63 -41 -80 20 -19 43 42 53 64 30 64 -4 0 -27 -20
-50 -45z"/>
<path d="M2210 2263 c0 -3 7 -14 15 -23 14 -16 12 -20 -25 -54 -55 -49 -40
-66 17 -19 42 35 46 36 58 20 8 -11 16 -14 19 -8 4 6 -10 28 -30 51 -34 37
-54 50 -54 33z"/>
<path d="M685 2210 c-3 -5 6 -30 20 -55 15 -25 25 -45 22 -45 -2 0 -24 7 -47
15 -52 18 -60 19 -60 2 0 -15 121 -49 133 -37 8 7 -47 130 -58 130 -2 0 -7 -4
-10 -10z"/>
<path d="M2300 2145 c-6 -14 -10 -30 -10 -35 0 -5 -12 -20 -27 -34 -33 -31
-24 -45 13 -21 19 12 39 16 71 12 36 -4 42 -2 32 9 -6 8 -25 14 -41 14 -20 0
-29 4 -25 13 15 40 17 56 7 62 -5 3 -15 -6 -20 -20z"/>
<path d="M595 2092 c-11 -11 -4 -19 30 -38 19 -10 35 -21 35 -24 0 -3 -23 -7
-51 -8 -88 -4 -91 -17 -13 -55 30 -15 60 -24 66 -21 6 4 -8 17 -32 29 l-43 22
53 6 c30 4 57 10 62 15 4 4 -17 24 -47 44 -30 19 -57 33 -60 30z"/>
<path d="M2365 1963 c-62 -31 -61 -31 -48 -44 8 -8 13 -8 17 0 13 21 45 12 52
-15 4 -16 10 -22 16 -16 6 6 6 17 -1 30 -14 27 -14 29 5 36 11 4 19 -4 30 -30
8 -19 19 -32 24 -29 9 6 -23 88 -37 92 -4 1 -30 -10 -58 -24z"/>
<path d="M503 1912 l-21 -49 63 -20 63 -21 16 42 c18 47 19 56 8 56 -4 0 -14
-16 -21 -35 -13 -37 -18 -40 -39 -26 -12 7 -11 14 2 39 10 19 12 33 6 37 -9 6
-30 -33 -30 -57 0 -5 -7 -7 -16 -4 -9 3 -18 6 -20 6 -2 0 3 16 11 36 18 42 18
44 6 44 -4 0 -17 -22 -28 -48z"/>
<path d="M2392 1844 c-52 -36 -12 -132 51 -120 43 9 57 24 57 62 0 62 -58 93
-108 58z m86 -45 c4 -32 -18 -51 -55 -47 -20 2 -29 9 -31 26 -5 33 16 54 52
50 25 -2 32 -8 34 -29z"/>
<path d="M560 1735 c0 -8 5 -15 10 -15 6 0 10 7 10 15 0 8 -4 15 -10 15 -5 0
-10 -7 -10 -15z"/>
<path d="M444 1684 c-13 -19 -15 -32 -8 -52 14 -40 45 -35 69 10 11 21 25 36
30 35 17 -6 18 -47 1 -53 -17 -7 -22 -34 -7 -34 15 0 41 42 41 65 0 12 -5 26
-12 33 -23 23 -47 13 -68 -28 -21 -41 -40 -45 -40 -9 0 11 7 22 15 25 17 7 21
34 5 34 -5 0 -17 -12 -26 -26z"/>
<path d="M2462 1699 c-56 -11 -62 -15 -62 -49 0 -55 7 -60 76 -60 51 0 62 3
58 15 -4 10 -20 14 -57 12 -47 -2 -52 0 -55 20 -4 26 28 43 78 43 22 0 28 4
24 15 -4 8 -9 15 -13 14 -3 -1 -25 -5 -49 -10z"/>
<path d="M2473 1553 c-72 -4 -84 -20 -20 -25 l42 -3 -47 -28 c-27 -16 -48 -32
-48 -37 0 -9 60 -20 108 -20 17 0 32 5 32 10 0 11 -17 13 -62 10 -40 -2 -34
11 17 42 25 15 45 34 45 43 0 8 -1 14 -2 13 -2 -1 -31 -3 -65 -5z"/>
<path d="M540 1486 c0 -35 0 -35 -52 -38 -30 -2 -53 -8 -56 -15 -4 -14 29 -17
91 -7 36 6 37 8 37 50 0 24 -4 44 -10 44 -5 0 -10 -16 -10 -34z"/>
<path d="M2395 1379 c-8 -48 7 -76 45 -84 46 -10 68 2 80 43 17 64 19 63 -87
75 -30 3 -32 1 -38 -34z m114 -5 c2 -2 -1 -15 -7 -29 -8 -17 -20 -25 -36 -25
-42 0 -56 10 -56 42 l0 29 48 -7 c26 -3 49 -8 51 -10z"/>
<path d="M554 1360 c5 -35 4 -40 -13 -40 -15 0 -22 9 -27 35 -9 49 -27 45 -19
-4 5 -30 3 -40 -9 -44 -12 -5 -17 3 -22 33 -4 22 -11 40 -16 40 -9 0 -2 -89 8
-99 2 -2 31 2 65 9 l61 13 -6 36 c-3 20 -6 42 -6 49 0 6 -5 12 -11 12 -8 0 -9
-13 -5 -40z"/>
<path d="M2370 1281 c0 -5 6 -14 14 -20 20 -17 1 -71 -25 -71 -10 0 -19 -4
-19 -10 0 -17 116 -12 134 6 9 8 16 17 16 18 0 6 -106 86 -113 86 -4 0 -7 -4
-7 -9z m89 -78 c2 -2 -9 -3 -26 -3 -26 0 -30 3 -26 20 5 20 6 20 27 3 11 -10
23 -19 25 -20z"/>
<path d="M503 1249 c-18 -5 -33 -16 -33 -23 0 -11 9 -11 52 1 48 14 52 14 65
-2 17 -24 2 -41 -48 -57 -22 -6 -39 -17 -39 -25 0 -18 10 -17 64 7 45 19 50
26 46 65 -5 44 -37 54 -107 34z"/>
<path d="M572 1115 c-29 -14 -51 -29 -47 -35 4 -6 21 -2 46 10 21 11 39 19 39
16 0 -2 -12 -25 -26 -50 -36 -65 -22 -75 49 -34 31 18 53 36 48 41 -4 4 -24
-2 -45 -13 -43 -26 -44 -22 -11 34 36 62 26 68 -53 31z"/>
<path d="M2317 1127 c-2 -6 18 -22 45 -34 44 -20 48 -25 42 -48 -3 -14 -4 -25
0 -25 5 0 56 94 56 105 0 14 -22 3 -28 -15 -7 -19 -8 -19 -59 5 -35 16 -53 20
-56 12z"/>
<path d="M2275 1051 c-8 -14 104 -76 116 -64 7 7 -9 21 -45 42 -62 35 -63 35
-71 22z"/>
<path d="M657 981 c-35 -55 -42 -95 -14 -86 7 2 38 11 70 20 33 9 55 20 52 26
-4 5 -15 7 -25 4 -23 -7 -56 40 -41 59 5 6 7 17 3 23 -5 7 -22 -11 -45 -46z
m41 -46 c-1 -1 -14 -6 -27 -10 -24 -7 -24 0 2 33 9 11 12 10 20 -3 5 -9 7 -18
5 -20z"/>
<path d="M2230 980 c-55 -55 20 -154 81 -107 18 14 39 50 39 67 0 20 -49 60
-75 60 -14 0 -34 -9 -45 -20z m68 -16 c28 -19 29 -60 1 -74 -43 -24 -92 43
-57 78 16 16 29 15 56 -4z"/>
<path d="M735 875 c-46 -40 -49 -45 -34 -60 15 -15 19 -15 50 4 48 30 53 26
27 -19 -21 -36 -22 -41 -7 -55 15 -15 19 -13 58 31 22 26 41 51 41 55 0 19
-20 7 -47 -26 -38 -48 -49 -44 -17 6 37 60 26 77 -29 44 -61 -35 -67 -31 -16
13 23 21 38 41 33 44 -5 4 -32 -13 -59 -37z"/>
<path d="M2156 891 c-3 -5 8 -21 25 -35 17 -15 29 -29 27 -31 -3 -3 -25 1 -51
9 -49 14 -77 5 -54 -19 7 -6 27 -29 45 -49 21 -24 37 -35 43 -29 6 6 -2 20
-21 38 -28 27 -42 53 -21 40 21 -12 102 -22 107 -13 7 11 -27 50 -68 79 -15
11 -29 15 -32 10z"/>
<path d="M860 740 c0 -5 7 -10 16 -10 10 0 14 -6 11 -14 -3 -8 3 -22 14 -32
10 -9 19 -12 19 -7 0 6 -7 14 -16 17 -16 6 -16 8 0 24 20 23 21 39 2 23 -10
-8 -16 -9 -21 -1 -8 13 -25 13 -25 0z"/>
<path d="M2095 740 c-3 -5 1 -10 9 -10 9 0 16 5 16 10 0 6 -4 10 -9 10 -6 0
-13 -4 -16 -10z"/>
<path d="M2041 727 c-15 -19 -3 -28 27 -20 17 4 23 2 18 -6 -4 -6 -15 -11 -24
-12 -11 0 -12 -2 -4 -6 14 -5 42 14 42 29 0 6 -11 8 -25 6 -28 -6 -35 8 -7 15
14 4 14 5 1 6 -9 0 -22 -5 -28 -12z"/>
<path d="M949 696 c-10 -21 -10 -29 0 -39 15 -15 45 2 48 29 2 16 1 15 -9 -3
-12 -25 -38 -31 -38 -10 0 7 5 18 12 25 6 6 9 15 5 18 -3 4 -12 -5 -18 -20z"/>
<path d="M1991 696 c-9 -11 -10 -20 -1 -35 6 -12 14 -21 18 -21 14 0 48 29 35
30 -6 0 -15 -5 -18 -10 -4 -6 -11 -8 -16 -4 -6 3 -3 12 8 19 17 13 16 14 -7 9
-24 -5 -24 -5 -6 10 11 9 15 16 9 16 -6 0 -16 -6 -22 -14z"/>
<path d="M1010 664 c-10 -11 -11 -20 -3 -32 12 -19 43 -29 43 -13 0 6 -6 8
-14 5 -20 -8 -30 14 -15 32 6 8 10 17 7 19 -3 3 -11 -2 -18 -11z"/>
<path d="M1960 663 c11 -23 -2 -34 -15 -13 -3 6 -13 10 -21 10 -13 0 -12 -4 1
-30 18 -34 29 -40 20 -9 -6 18 -5 20 14 10 26 -14 29 5 5 35 -14 18 -15 18 -4
-3z"/>
<path d="M1046 657 c3 -10 9 -15 12 -12 3 3 0 11 -7 18 -10 9 -11 8 -5 -6z"/>
<path d="M1068 625 c-13 -29 -12 -30 22 -39 24 -6 24 -6 5 6 -28 18 -21 51 8
43 17 -5 19 -4 7 4 -22 16 -29 14 -42 -14z"/>
<path d="M1891 645 c0 -18 28 -61 29 -44 0 8 -7 24 -15 35 -8 10 -14 15 -14 9z"/>
<path d="M1847 627 c-14 -11 -14 -15 -2 -37 8 -14 14 -19 15 -11 0 8 7 19 16
25 14 10 14 14 2 24 -11 9 -18 9 -31 -1z m15 -19 c-7 -7 -12 -8 -12 -2 0 14
12 26 19 19 2 -3 -1 -11 -7 -17z"/>
<path d="M1131 607 c-15 -38 -14 -44 4 -21 13 17 14 17 15 2 0 -28 16 -29 28
-3 7 15 8 25 2 25 -6 0 -10 -8 -11 -17 0 -12 -5 -7 -14 12 l-13 30 -11 -28z"/>
<path d="M1777 603 c-6 -10 10 -53 19 -53 3 0 3 11 0 25 -4 15 -2 25 4 25 6 0
8 -5 4 -11 -4 -7 -2 -10 5 -8 7 3 13 9 14 14 2 12 -39 19 -46 8z"/>
<path d="M1200 575 c-13 -14 -18 -25 -11 -25 6 0 14 7 17 15 4 8 11 15 16 15
6 0 8 -7 5 -15 -4 -8 -2 -17 3 -20 6 -4 10 5 10 19 0 35 -14 39 -40 11z"/>
<path d="M1751 590 c0 -8 4 -24 9 -35 5 -13 9 -14 9 -5 0 8 -4 24 -9 35 -5 13
-9 14 -9 5z"/>
<path d="M1693 576 c4 -10 7 -24 7 -32 0 -15 35 -19 44 -5 4 5 -3 7 -14 4 -15
-4 -20 0 -20 15 0 12 -5 24 -12 28 -8 5 -9 2 -5 -10z"/>
<path d="M1284 565 c-9 -23 3 -45 26 -45 11 0 20 4 20 9 0 5 -8 8 -17 7 -10 0
-18 6 -18 14 0 10 8 14 23 13 13 -2 21 1 17 7 -9 15 -45 12 -51 -5z"/>
<path d="M1641 568 c-1 -21 -27 -24 -34 -5 -4 8 -5 7 -6 -3 0 -8 4 -24 9 -35
7 -17 9 -17 9 -2 1 19 31 24 31 5 0 -6 2 -9 5 -7 2 3 0 18 -4 35 -5 16 -10 21
-10 12z"/>
<path d="M1670 552 c0 -18 5 -32 10 -32 6 0 8 11 4 28 -10 39 -14 40 -14 4z"/>
<path d="M1350 540 c0 -16 2 -30 4 -30 2 0 6 14 8 30 3 17 1 30 -4 30 -4 0 -8
-13 -8 -30z"/>
<path d="M1386 564 c6 -3 10 -17 8 -32 -4 -27 -4 -27 4 -2 12 37 39 38 49 2
l8 -30 18 36 c16 30 16 34 2 22 -12 -10 -19 -10 -27 -2 -7 7 -26 12 -42 11
-17 0 -26 -3 -20 -5z"/>
<path d="M1540 538 c0 -18 4 -28 8 -22 4 6 15 14 25 17 24 9 17 31 -11 35 -19
3 -22 -1 -22 -30z m35 12 c3 -5 -1 -10 -9 -10 -9 0 -16 5 -16 10 0 6 4 10 9
10 6 0 13 -4 16 -10z"/>
<path d="M1491 504 c0 -11 3 -14 6 -6 3 7 2 16 -1 19 -3 4 -6 -2 -5 -13z"/>
</g>
</svg>
